<svg id="Layer_1" data-name="Layer 1" xmlns="http://www.w3.org/2000/svg" viewBox="0 0 310 60"><defs><style>.cls-1{fill:#900;}.cls-2{fill:#fff;}.cls-3{isolation:isolate;}</style></defs><title>IPE-White</title><rect class="cls-1" width="50.91" height="60"/><polygon class="cls-2" points="31.32 14.48 31.32 17.64 33.51 17.64 33.51 35.27 28.88 35.27 28.88 12.05 31.34 12.05 31.34 8.89 19.79 8.89 19.79 12.05 22.25 12.05 22.25 35.27 17.57 35.27 17.57 17.64 19.75 17.64 19.75 14.48 8.89 14.48 8.89 17.64 11.34 17.64 11.34 38.06 15.34 42.13 22.25 42.13 22.25 46.84 19.8 46.84 19.8 50.91 31.33 50.91 31.33 46.84 28.88 46.84 28.88 42.13 35.74 42.13 39.73 38.06 39.73 17.64 42.19 17.64 42.19 14.48 31.32 14.48"/><g class="cls-3"><path class="cls-2" d="M61.76,13.36h2.65V26.28H61.76Z"/><path class="cls-2" d="M66.63,13.36h2.74l3,5.8c.41.82.62,1.24,1,2.22h0v-8h2.41V26.28H73.37L70,20c-.36-.69-.55-1.06-.94-1.92h0v8.19H66.63Z"/><path class="cls-2" d="M80.29,15.6H77.22V13.36H86V15.6H82.94V26.28H80.29Z"/><path class="cls-2" d="M87.38,13.36h7.4V15.6H90v2.91h3.42v2.11H90V24.1h5v2.18H87.38Z"/><path class="cls-2" d="M96.55,13.36h4c2.72,0,4.38,1.15,4.38,4.05a3.47,3.47,0,0,1-2.13,3.44l2.46,5.43h-2.74l-2.18-4.78H99.15v4.78h-2.6Zm4,6.11c1.29,0,1.94-.54,1.94-2s-.65-1.88-1.94-1.88H99.15v3.89Z"/><path class="cls-2" d="M106.9,13.36h3.91c2.39,0,4.5,1,4.5,4.16,0,3.4-2.3,4.26-4.53,4.26h-1.26v4.5H106.9Zm3.95,6.32c1.38,0,1.93-.66,1.93-2.09s-.54-2-2-2h-1.31v4.1Z"/></g><g class="cls-3"><path class="cls-2" d="M116.92,13.36h4c2.72,0,4.38,1.15,4.38,4.05a3.46,3.46,0,0,1-2.13,3.44l2.46,5.43h-2.74l-2.18-4.78h-1.22v4.78h-2.6Zm3.94,6.11c1.29,0,1.94-.54,1.94-2s-.65-1.88-1.94-1.88h-1.34v3.89Z"/></g><g class="cls-3"><path class="cls-2" d="M126.63,19.82c0-4.62,2.34-6.7,5.13-6.7s5.12,2.08,5.12,6.7-2.34,6.7-5.12,6.7S126.63,24.45,126.63,19.82Zm7.57,0c0-2.86-.85-4.43-2.44-4.43S129.3,17,129.3,19.82s.85,4.51,2.46,4.51S134.2,22.68,134.2,19.82Z"/><path class="cls-2" d="M138.51,13.36h7.26V15.6h-4.6v3.19h3.29V20.9h-3.29v5.38h-2.66Z"/></g><g class="cls-3"><path class="cls-2" d="M147.13,13.36h7.41V15.6h-4.75v2.91h3.42v2.11h-3.42V24.1h5v2.18h-7.65Z"/></g><g class="cls-3"><path class="cls-2" d="M155.55,23.43l2.15-1.08a3.17,3.17,0,0,0,2.7,2c1.12,0,1.71-.6,1.71-1.47,0-1.07-1.06-1.55-2.28-2.08-1.7-.71-3.77-1.53-3.77-4.14,0-2.14,1.74-3.59,4.1-3.59A4.6,4.6,0,0,1,164.51,16l-2.06,1.12a2.67,2.67,0,0,0-2.34-1.82,1.29,1.29,0,0,0-1.45,1.29c0,1,1,1.52,2.13,2,1.73.75,3.93,1.58,3.93,4.19,0,2-1.51,3.69-4.32,3.69A5,5,0,0,1,155.55,23.43Z"/></g><g class="cls-3"><path class="cls-2" d="M165.66,23.43l2.15-1.08a3.17,3.17,0,0,0,2.7,2c1.12,0,1.71-.6,1.71-1.47,0-1.07-1.06-1.55-2.28-2.08-1.69-.71-3.77-1.53-3.77-4.14,0-2.14,1.74-3.59,4.1-3.59A4.6,4.6,0,0,1,174.62,16l-2.06,1.12a2.67,2.67,0,0,0-2.34-1.82,1.29,1.29,0,0,0-1.45,1.29c0,1,1,1.52,2.13,2,1.73.75,3.93,1.58,3.93,4.19,0,2-1.5,3.69-4.32,3.69A5,5,0,0,1,165.66,23.43Z"/><path class="cls-2" d="M176.62,13.36h2.65V26.28h-2.65Z"/><path class="cls-2" d="M181,19.82c0-4.62,2.34-6.7,5.13-6.7s5.12,2.08,5.12,6.7-2.34,6.7-5.12,6.7S181,24.45,181,19.82Zm7.58,0c0-2.86-.86-4.43-2.45-4.43s-2.46,1.57-2.46,4.43.86,4.51,2.46,4.51S188.56,22.68,188.56,19.82Z"/><path class="cls-2" d="M192.87,13.36h2.74l3,5.8c.42.82.63,1.24,1.05,2.22h0v-8h2.41V26.28H199.6L196.25,20c-.36-.69-.56-1.06-.94-1.92h0v8.19h-2.4Z"/><path class="cls-2" d="M205.85,26.28h-2.48l3.79-13h2.55l3.79,13h-2.68l-.69-2.72h-3.56Zm3.4-6.09c-.35-1.36-.62-2.32-.87-3.53h0c-.23,1.22-.53,2.15-.89,3.51l-.35,1.33h2.47Z"/></g><g class="cls-3"><path class="cls-2" d="M214.75,13.36h2.66V24.1h4.85v2.18h-7.51Z"/></g><g class="cls-3"><path class="cls-2" d="M227,13.36h3.91c2.4,0,4.51,1,4.51,4.16,0,3.4-2.31,4.26-4.54,4.26h-1.26v4.5H227ZM231,19.68c1.38,0,1.94-.66,1.94-2.09s-.54-2-2-2h-1.31v4.1Z"/></g><g class="cls-3"><path class="cls-2" d="M237,13.36h4c2.72,0,4.38,1.15,4.38,4.05a3.46,3.46,0,0,1-2.13,3.44l2.46,5.43H243l-2.18-4.78h-1.22v4.78H237ZM241,19.47c1.29,0,1.94-.54,1.94-2s-.65-1.88-1.94-1.88h-1.34v3.89Z"/></g><g class="cls-3"><path class="cls-2" d="M248.91,26.28h-2.48l3.79-13h2.55l3.79,13h-2.67l-.7-2.72h-3.56Zm3.4-6.09c-.34-1.36-.62-2.32-.87-3.53h0c-.23,1.22-.53,2.15-.89,3.51l-.35,1.33h2.48Z"/></g><g class="cls-3"><path class="cls-2" d="M256.75,19.8c0-4.6,2.08-6.68,5-6.68s4,1.74,4.39,4.45l-2.49.44c-.3-1.77-.79-2.62-2-2.62-1.54,0-2.27,1.55-2.27,4.41s.75,4.53,2.3,4.53c1.21,0,1.77-.81,2.1-2.8l2.49.4c-.47,2.6-1.69,4.58-4.6,4.58S256.75,24.46,256.75,19.8Z"/></g><g class="cls-3"><path class="cls-2" d="M269.73,15.6h-3.07V13.36h8.81V15.6h-3.09V26.28h-2.65Z"/><path class="cls-2" d="M276.92,13.36h2.65V26.28h-2.65Z"/><path class="cls-2" d="M281.28,19.8c0-4.6,2.08-6.68,5-6.68s4,1.74,4.4,4.45l-2.5.44c-.29-1.77-.78-2.62-2-2.62-1.53,0-2.27,1.55-2.27,4.41s.75,4.53,2.31,4.53c1.2,0,1.76-.81,2.09-2.8l2.5.4c-.47,2.6-1.7,4.58-4.61,4.58S281.28,24.46,281.28,19.8Z"/><path class="cls-2" d="M292.35,13.36h7.4V15.6H295v2.91h3.42v2.11H295V24.1h5v2.18h-7.64Z"/></g><g class="cls-3"><path class="cls-2" d="M63.26,47.22H60.78l3.79-13h2.55l3.79,13H68.24l-.7-2.72H64Zm3.4-6.09c-.34-1.36-.62-2.32-.87-3.53h0c-.23,1.22-.53,2.15-.89,3.51l-.35,1.33H67Z"/><path class="cls-2" d="M72.16,34.3H74.9l3,5.8c.42.82.63,1.24,1,2.21h0v-8h2.41V47.22H78.9L75.55,41c-.37-.7-.56-1.06-1-1.92h0v8.19H72.16Z"/><path class="cls-2" d="M83.54,34.3h3.38c3.48,0,5.92,1.43,5.92,6.43s-2.5,6.49-5.92,6.49H83.54ZM87.17,45c2.23,0,3-1.15,3-4.27s-.79-4.19-3-4.19h-1V45Z"/><path class="cls-2" d="M98.37,34.3h7.4v2.24H101v2.91h3.42v2.11H101V45h5v2.18H98.37Z"/></g><g class="cls-3"><path class="cls-2" d="M107.55,34.3h3.39c3.48,0,5.92,1.43,5.92,6.43s-2.5,6.49-5.92,6.49h-3.39ZM111.19,45c2.23,0,3-1.15,3-4.27s-.79-4.19-3-4.19h-1V45Z"/><path class="cls-2" d="M118.29,42.75V34.3h2.65v8.29c0,1.8.51,2.6,1.83,2.6s1.84-.82,1.84-2.58V34.3h2.53v8.43c0,3-1.28,4.7-4.4,4.7S118.29,45.72,118.29,42.75Z"/></g><g class="cls-3"><path class="cls-2" d="M128.57,40.74c0-4.61,2.08-6.68,5-6.68s4,1.74,4.4,4.45l-2.5.44c-.3-1.77-.79-2.62-2-2.62-1.54,0-2.27,1.55-2.27,4.41s.75,4.52,2.3,4.52c1.21,0,1.77-.8,2.1-2.79l2.49.4c-.47,2.6-1.69,4.58-4.6,4.58S128.57,45.4,128.57,40.74Z"/></g><g class="cls-3"><path class="cls-2" d="M140.8,47.22h-2.48l3.79-13h2.55l3.79,13h-2.67l-.7-2.72h-3.56Zm3.4-6.09c-.34-1.36-.62-2.32-.87-3.53h0c-.23,1.22-.53,2.15-.89,3.51l-.35,1.33h2.48Z"/></g><g class="cls-3"><path class="cls-2" d="M150.72,36.54h-3.07V34.3h8.81v2.24h-3.08V47.22h-2.66Z"/><path class="cls-2" d="M157.91,34.3h2.65V47.22h-2.65Z"/><path class="cls-2" d="M162.27,40.76c0-4.63,2.34-6.7,5.13-6.7s5.12,2.07,5.12,6.7-2.34,6.7-5.12,6.7S162.27,45.39,162.27,40.76Zm7.58,0c0-2.86-.86-4.43-2.45-4.43s-2.46,1.57-2.46,4.43.86,4.5,2.46,4.5S169.85,43.62,169.85,40.76Z"/><path class="cls-2" d="M174.16,34.3h2.74l3,5.8c.42.82.63,1.24,1,2.21h0v-8h2.4V47.22h-2.46L177.54,41c-.36-.7-.56-1.06-.94-1.92h0v8.19h-2.4Z"/><path class="cls-2" d="M188.94,40.74c0-4.61,2.07-6.68,5-6.68s4,1.74,4.4,4.45l-2.49.44c-.3-1.77-.79-2.62-2-2.62-1.54,0-2.27,1.55-2.27,4.41s.75,4.52,2.3,4.52c1.21,0,1.76-.8,2.09-2.79l2.5.4c-.47,2.6-1.69,4.58-4.61,4.58S188.94,45.4,188.94,40.74Z"/><path class="cls-2" d="M200,34.3h7.4v2.24h-4.75v2.91h3.42v2.11h-3.42V45h5v2.18H200Z"/><path class="cls-2" d="M209.18,34.3h2.74l3,5.8c.42.82.63,1.24,1.05,2.21h0v-8h2.41V47.22h-2.46L212.56,41c-.36-.7-.56-1.06-.94-1.92h0v8.19h-2.41Z"/><path class="cls-2" d="M222.84,36.54h-3.07V34.3h8.81v2.24h-3.09V47.22h-2.65Z"/><path class="cls-2" d="M229.92,34.3h7.41v2.24h-4.75v2.91H236v2.11h-3.42V45h5v2.18h-7.65Z"/><path class="cls-2" d="M239.1,34.3h4c2.72,0,4.38,1.15,4.38,4.05a3.47,3.47,0,0,1-2.13,3.44l2.46,5.43h-2.74l-2.18-4.78H241.7v4.78h-2.6Zm4,6.11c1.29,0,1.94-.54,1.94-2s-.65-1.88-1.94-1.88H241.7v3.89Z"/></g></svg>